# xmcd CD database file
#
# Track frame offsets:
#	150
#	21025
#	40457
#	58257
#	75477
#	88807
#	105620
#	140452
#	161485
#	172835
#	188380
#	212465
#	232520
#
# Disc length: 3377 seconds
#
# Revision: 0
# Processed by: cddbd v1.5.1PL0 Copyright (c) Steve Scherf et al.
# Submitted via: CDex 1.50beta10
#
DISCID=950d2f0d
DTITLE=Windham Hill Records - Windham Hill Piano Selection II
DYEAR=1900
DGENRE=New Age
TTITLE0=sweet rose/scott cossu with eugene friesen
TTITLE1=mostly the hours/liz story
TTITLE2=little star/jim brickman
TTITLE3=islands/scott cossu
TTITLE4=remembering this place/philip aaberg
TTITLE5=along the salmon/bob leon
TTITLE6=3 gymnopedies/bill quist (eric satie)
TTITLE7=solid colors/liz story
TTITLE8=rocket to the moon/jim brickman
TTITLE9=available light/w.a.mathieu
TTITLE10=out of the flame/philip aaberg
TTITLE11=the myst/nightnoise
TTITLE12=a morning with the roses/richard dworsky
EXTD=
EXTT0=
EXTT1=
EXTT2=
EXTT3=
EXTT4=
EXTT5=
EXTT6=
EXTT7=
EXTT8=
EXTT9=
EXTT10=
EXTT11=
EXTT12=
PLAYORDER=
